<?xml version="1.0" standalone="no"?>
<!DOCTYPE svg PUBLIC "-//W3C//DTD SVG 20010904//EN"
 "http://www.w3.org/TR/2001/REC-SVG-20010904/DTD/svg10.dtd">
<svg version="1.0" xmlns="http://www.w3.org/2000/svg"
 width="131.000000pt" height="130.000000pt" viewBox="0 0 131.000000 130.000000"
 preserveAspectRatio="xMidYMid meet">
<metadata>
Created by potrace 1.11, written by Peter Selinger 2001-2013
</metadata>
<g transform="translate(0.000000,130.000000) scale(0.100000,-0.100000)"
fill="#000000" stroke="none">
<path d="M488 1136 c-21 -8 -48 -20 -61 -29 -30 -19 -148 -185 -189 -265 l-33
-64 45 -39 c24 -22 68 -54 96 -72 48 -28 59 -42 112 -141 49 -91 64 -130 81
-214 19 -94 25 -108 63 -152 24 -26 45 -43 47 -37 4 11 -28 685 -34 703 -2 7
-22 8 -62 3 -49 -7 -120 2 -142 17 -4 4 49 167 58 177 4 4 34 11 67 15 55 7
59 9 56 32 -3 30 -34 74 -53 77 -8 1 -31 -4 -51 -11z m77 -47 l16 -29 -53 0
c-29 0 -59 -4 -66 -8 -9 -6 -82 -200 -82 -218 0 -2 25 -10 55 -18 36 -11 71
-14 108 -10 l53 6 12 -253 c7 -140 15 -285 18 -324 l6 -70 -26 25 c-20 20 -30
47 -47 130 -18 87 -32 123 -83 218 -51 94 -68 117 -102 137 -23 13 -64 42 -93
65 l-51 41 21 42 c25 48 108 174 151 228 26 32 67 57 118 72 20 6 28 1 45 -34z"/>
<path d="M778 1133 c-21 -25 -38 -58 -38 -77 0 -12 11 -16 43 -17 82 -2 88 -7
119 -99 15 -46 28 -87 28 -90 0 -16 -90 -28 -145 -21 -33 5 -61 8 -61 7 -3 -2
-39 -726 -37 -726 5 0 77 82 86 95 4 8 16 57 27 111 16 76 32 120 78 206 57
105 60 109 142 166 115 79 118 85 80 158 -17 32 -63 103 -102 157 -56 78 -79
103 -112 117 -68 31 -90 33 -108 13z m106 -34 c17 -8 57 -54 100 -114 86 -122
121 -187 113 -208 -3 -9 -45 -42 -91 -73 -86 -57 -86 -57 -146 -170 -48 -89
-64 -133 -80 -209 -21 -101 -29 -124 -54 -145 -20 -15 -20 -36 -1 290 8 140
15 275 15 299 l0 44 55 -7 c63 -7 170 17 162 37 -2 7 -19 56 -36 110 -35 105
-34 104 -118 109 l-43 3 20 32 c21 34 34 35 104 2z"/>
</g>
</svg>
